<svg xmlns="http://www.w3.org/2000/svg" width="80px" height="80px" viewBox="0 0 80 80"><defs><style>.cls-1{fill:#304ea0;}.cls-2{fill:#fff;}</style></defs><g id="レイヤー_2" data-name="レイヤー 2"><g id="レイヤー_1-2" data-name="レイヤー 1"><path class="cls-1" d="M36.05,79a3.79,3.79,0,0,1-3.66-2.84A36.94,36.94,0,0,1,28,74.9a3.77,3.77,0,0,1-4.54.6l-6.4-3.7a3.77,3.77,0,0,1-1.68-4.49l0-.08a37.28,37.28,0,0,1-2.95-3.08h0a4,4,0,0,1-1.22.2A3.79,3.79,0,0,1,8,62.48l-3.7-6.4a3.78,3.78,0,0,1,.8-4.74l.27-.25a36.54,36.54,0,0,1-.94-3.88l-.34-.07A3.75,3.75,0,0,1,1,43.4V36a3.79,3.79,0,0,1,3.05-3.7l.68-.13a36.68,36.68,0,0,1,1-3.58L5.3,28.2a3.77,3.77,0,0,1-.79-4.73l3.69-6.4a3.8,3.8,0,0,1,3.27-1.88,3.7,3.7,0,0,1,1.23.21l.85.29a34.67,34.67,0,0,1,2.52-2.48l-.27-.78a3.81,3.81,0,0,1,1.68-4.49l6.4-3.7a3.82,3.82,0,0,1,1.89-.5A3.77,3.77,0,0,1,28.62,5l.6.7a35.24,35.24,0,0,1,3.46-.91l.16-.78a3.76,3.76,0,0,1,3.69-3h7.4a3.78,3.78,0,0,1,3.7,3.05l.15.78a34,34,0,0,1,3.6,1l.42-.48A3.77,3.77,0,0,1,54.64,4a3.72,3.72,0,0,1,1.86.49l6.41,3.69a3.77,3.77,0,0,1,1.68,4.49l-.18.52a36.2,36.2,0,0,1,2.79,2.75l.34-.12a3.67,3.67,0,0,1,1.22-.2A3.83,3.83,0,0,1,72,17.49l3.69,6.41a3.76,3.76,0,0,1-.79,4.73l-.15.13a35.69,35.69,0,0,1,1.13,4.08h0A3.76,3.76,0,0,1,79,36.56V44a3.79,3.79,0,0,1-3,3.68A36.12,36.12,0,0,1,74.91,52a3.78,3.78,0,0,1,.58,4.54L71.8,62.91a3.76,3.76,0,0,1-3.26,1.89h0a4,4,0,0,1-1-.12A36.2,36.2,0,0,1,64.23,68a3.79,3.79,0,0,1-1.8,4L56,75.71a3.75,3.75,0,0,1-4.49-.54A36.52,36.52,0,0,1,47,76.33,3.75,3.75,0,0,1,43.44,79Z"/><path class="cls-2" d="M36.53,2h7.4a2.77,2.77,0,0,1,2.72,2.24l.28,1.44A35.62,35.62,0,0,1,51.7,6.94l.85-1a2.77,2.77,0,0,1,2.09-1h0A2.64,2.64,0,0,1,56,5.36L62.41,9a2.78,2.78,0,0,1,1.24,3.3l-.41,1.16a35.55,35.55,0,0,1,3.66,3.6l1-.34A2.82,2.82,0,0,1,71.17,18l3.7,6.4a2.77,2.77,0,0,1-.59,3.48l-.65.57a36.65,36.65,0,0,1,1.45,5.24l.65.13A2.76,2.76,0,0,1,78,36.56V44a2.78,2.78,0,0,1-2.24,2.72l-.57.11a35,35,0,0,1-1.44,5.5l.29.26A2.77,2.77,0,0,1,74.62,56l-3.69,6.39a2.74,2.74,0,0,1-2.39,1.39,2.89,2.89,0,0,1-.91-.15l-.37-.13a35.62,35.62,0,0,1-4.13,4.11l0,.22a2.78,2.78,0,0,1-1.23,3.3l-6.41,3.7a2.75,2.75,0,0,1-1.38.37,2.78,2.78,0,0,1-2.1-1L51.83,74a34.71,34.71,0,0,1-5.67,1.46v.26A2.76,2.76,0,0,1,43.44,78H36.05a2.78,2.78,0,0,1-2.73-2.24l-.08-.44a35.06,35.06,0,0,1-5.51-1.59l-.28.31a2.75,2.75,0,0,1-2.09,1A2.78,2.78,0,0,1,24,74.63l-6.4-3.7a2.75,2.75,0,0,1-1.23-3.3l.24-.7a34.5,34.5,0,0,1-3.78-4l-.69.24a2.73,2.73,0,0,1-.89.15A2.8,2.8,0,0,1,8.82,62l-3.7-6.4a2.78,2.78,0,0,1,.59-3.48l.77-.69a35,35,0,0,1-1.22-5l-1-.2A2.76,2.76,0,0,1,2,43.41V36A2.78,2.78,0,0,1,4.24,33.3l1.32-.25A35.81,35.81,0,0,1,6.94,28.3l-1-.85A2.76,2.76,0,0,1,5.38,24l3.69-6.41a2.78,2.78,0,0,1,2.4-1.38,2.74,2.74,0,0,1,.9.15l1.48.51a34.27,34.27,0,0,1,3.38-3.33l-.48-1.42A2.78,2.78,0,0,1,18,8.8l6.4-3.69a2.78,2.78,0,0,1,3.48.58l1,1.2a35.41,35.41,0,0,1,4.63-1.21l.29-1.44A2.76,2.76,0,0,1,36.53,2m0-2a4.78,4.78,0,0,0-4.68,3.87l0,.12q-1.16.27-2.28.6l-.18-.21a4.78,4.78,0,0,0-6-1L17,7.07a4.82,4.82,0,0,0-2.13,5.68l.06.16c-.56.52-1.11,1.07-1.65,1.62L13,14.45a4.7,4.7,0,0,0-1.54-.26,4.78,4.78,0,0,0-4.14,2.38L3.65,23a4.75,4.75,0,0,0,1,5.94c-.26.8-.49,1.6-.7,2.41h0A4.78,4.78,0,0,0,0,36v7.39a4.76,4.76,0,0,0,3.53,4.64c.19.91.41,1.82.67,2.72a4.78,4.78,0,0,0-.81,5.81L7.09,63a4.81,4.81,0,0,0,4.14,2.38,4.5,4.5,0,0,0,.9-.09c.69.79,1.42,1.54,2.17,2.27a4.78,4.78,0,0,0,2.28,5.13L23,76.36a4.77,4.77,0,0,0,2.38.64,4.72,4.72,0,0,0,2.88-1c1.11.38,2.24.71,3.38,1a4.8,4.8,0,0,0,4.43,3h7.39a4.76,4.76,0,0,0,4.34-2.8c1.19-.25,2.37-.55,3.53-.91a4.76,4.76,0,0,0,5.21.29l6.41-3.7a4.8,4.8,0,0,0,2.36-4.48c.93-.84,1.82-1.72,2.66-2.64a3.81,3.81,0,0,0,.59,0,4.75,4.75,0,0,0,4.13-2.4L76.35,57A4.77,4.77,0,0,0,76,51.75c.34-1.1.64-2.21.88-3.34A4.78,4.78,0,0,0,80,44V36.56A4.76,4.76,0,0,0,76.76,32c-.23-1-.5-2-.82-3a4.77,4.77,0,0,0,.66-5.65L72.91,17a4.81,4.81,0,0,0-4.15-2.38,4.45,4.45,0,0,0-1.26.17c-.62-.66-1.27-1.29-1.93-1.9a4.78,4.78,0,0,0-2.16-5.58L57,3.62a4.78,4.78,0,0,0-5.95,1c-.8-.24-1.61-.45-2.42-.64l0-.13A4.8,4.8,0,0,0,43.93,0H36.56l0,2V0Z"/><path class="cls-2" d="M40,66.56A26.57,26.57,0,1,1,66.56,40,26.57,26.57,0,0,1,40,66.56Z"/><path class="cls-1" d="M40,63.25A23.26,23.26,0,1,1,63.25,40h0A23.28,23.28,0,0,1,40,63.25Z"/><path class="cls-2" d="M40,18.88A21.11,21.11,0,1,0,61.1,40,21.11,21.11,0,0,0,40,18.88Z"/><path class="cls-1" d="M40,52.44c-3.56,0-6.57-3.24-6.57-5.24a1.56,1.56,0,0,1,3.11-.09A4.3,4.3,0,0,0,40,49.33a4.3,4.3,0,0,0,3.45-2.22,1.56,1.56,0,0,1,3.11.09h0c0,1.56-1.54,3-2,3.42A7.05,7.05,0,0,1,40,52.44Z"/><path class="cls-1" d="M52.64,41.61c-4.68,0-4-7.14,0-7.14S57.32,41.61,52.64,41.61Z"/><path class="cls-1" d="M27.34,41.61c-4.68,0-4-7.14,0-7.14S32,41.61,27.34,41.61Z"/><path class="cls-1" d="M49.44,32.05a1.25,1.25,0,0,1-.15-2.48l4-.49a1.25,1.25,0,0,1,1.58.79,1.26,1.26,0,0,1-.8,1.58,1.24,1.24,0,0,1-.47.06l-4,.49Z"/><path class="cls-1" d="M30.53,32.05h-.15l-4-.5a1.24,1.24,0,1,1,.3-2.42l4,.49a1.25,1.25,0,0,1-.16,2.48Z"/></g></g></svg>