<?xml version="1.0" encoding="utf-8"?>
<!-- Generator: Adobe Illustrator 24.2.3, SVG Export Plug-In . SVG Version: 6.00 Build 0)  -->
<svg version="1.1" xmlns="http://www.w3.org/2000/svg" xmlns:xlink="http://www.w3.org/1999/xlink" x="0px"
	 y="0px" viewBox="0 0 93.1 63" style="enable-background:new 0 0 93.1 63;" xml:space="preserve">
<style type="text/css">
	.st0{fill:#304EA0;}
	.st1{fill:#FFFF00;}
	.st2{fill:#FFFFFF;}
</style>
<path class="st0" d="M76.3,5.2l-3.6,0.3c-0.9-1.5-3.2-5-4.9-5.3c-2.1-0.5-4.3-0.2-4.4,1.4c0.1,1.2,0.5,2.3,1,3.3h-9.7
	c-0.8,0-1.5,0.7-1.5,1.5v1.1c0,0.1,0,0.1,0,0.2H53c-5.3-0.1-12.3-0.2-18.9-0.3V6.5c0-0.8-0.7-1.5-1.5-1.5H16c-0.8,0-1.5,0.7-1.5,1.5
	v0.6h-2.1C7.7,6.7,0.6,9.4,0.1,18L0,31.3l0,0v0.4l0,0L0.1,45c0.5,8.7,7.6,11.4,12.3,10.9l2.1-0.1v0.7c0,0.8,0.7,1.5,1.5,1.5h16.6
	c0.8,0,1.5-0.7,1.5-1.5v-1.1c0-0.1,0-0.3-0.1-0.4c3.8-0.1,7.8-0.2,11.4-0.3c2.6,0,5.2,0.2,7.9,0.5c0,0.1,0,0.1,0,0.2v1.1
	c0,0.8,0.7,1.5,1.5,1.5h9.7c-0.5,1-0.9,2.1-1,3.3c0.1,1.6,2.3,1.9,4.4,1.4c1.7-0.4,4-3.9,4.9-5.4l3.6,0.4
	c13.3,0.6,16.8-7.5,16.8-16.8V22C93.1,12.7,89.6,4.7,76.3,5.2z"/>
<path class="st1" d="M91.6,47c-1.1,3.8-3.5,6.7-5.1,6c-0.9-0.4-0.2-5,0.5-7.8c0.5-2,1.8-6.5,3.5-6S92.7,43.2,91.6,47z"/>
<path class="st1" d="M91.6,16c-1.1-3.8-3.5-6.7-5.1-6c-0.9,0.4-0.2,5,0.5,7.8c0.5,2,1.8,6.5,3.5,6S92.7,19.8,91.6,16z"/>
<path class="st2" d="M58.5,31.5c0,4.8-0.3,9.6-0.9,14.4c-0.1,2.1,0.4,3.5,1.8,3.8l7.9,1c3.1,0.2,4.5-1.3,5-4.1c0.9-5,1.3-10,1.4-15
	v-0.4c0-5-0.5-10-1.4-15c-0.5-2.8-1.9-4.3-5-4.1l-7.9,1c-1.5,0.3-2,1.7-1.8,3.8c0.6,4.8,1,9.6,0.9,14.4V31.5z"/>
<path class="st2" d="M3.5,31.8v-0.4c0-5,0.5-10,1.4-15c0.5-2.8,1.3-3.5,4.4-3.4l1.9,0.3c1.5,0.3,2,1.7,1.8,3.8
	c-0.7,4.8-1,9.6-0.9,14.4v-0.1c0,4.8,0.3,9.6,0.9,14.4c0.1,2.1-0.4,3.5-1.8,3.8l-1.9,0.3c-3.1,0.2-3.9-0.6-4.4-3.4
	c-0.9-5-1.3-10-1.4-15V31.8L3.5,31.8z"/>
<polygon class="st2" points="39,51.7 55.9,52.1 50.2,50.7 39,50.6 "/>
<polygon class="st2" points="35.3,50.6 21.7,50.5 19.8,51.3 34.5,51.6 "/>
<polygon class="st2" points="39,11.3 55.9,10.9 50.2,12.3 39,12.4 "/>
<polygon class="st2" points="35.3,12.4 21.7,12.5 19.8,11.7 34.5,11.4 "/>
</svg>
