<svg id="レイヤー_1" data-name="レイヤー 1" xmlns="http://www.w3.org/2000/svg" viewBox="0 0 93.1 63"><defs><style>.cls-1{fill:#231815;}.cls-2,.cls-3{fill:#fff;}.cls-2{stroke:#231815;stroke-miterlimit:10;stroke-width:0.93px;}</style></defs><title>cari_bk01</title><path class="cls-1" d="M326.78,395.12l-3.58.33c-.91-1.47-3.19-4.95-4.87-5.34-2.12-.5-4.31-.19-4.44,1.44a8.88,8.88,0,0,0,1,3.3h-9.66a1.5,1.5,0,0,0-1.5,1.5v1.06a.9.9,0,0,0,0,.16h-.25c-5.3-.11-12.25-.22-18.89-.31v-.9a1.51,1.51,0,0,0-1.51-1.5H266.47a1.5,1.5,0,0,0-1.5,1.5V397l-2.09,0c-4.75-.42-11.81,2.25-12.34,10.93l-.09,13.28h0v.4h0l.09,13.28c.53,8.68,7.59,11.35,12.34,10.93l2.09-.09v.72a1.5,1.5,0,0,0,1.5,1.5h16.64a1.51,1.51,0,0,0,1.51-1.5v-1.06a1.43,1.43,0,0,0-.09-.42c3.83-.13,7.75-.24,11.39-.32a56.06,56.06,0,0,1,7.85.55,1.29,1.29,0,0,0,0,.19v1.06a1.5,1.5,0,0,0,1.5,1.5h9.66a8.88,8.88,0,0,0-1,3.3c.13,1.63,2.32,1.94,4.44,1.44,1.68-.39,4-3.9,4.88-5.36l3.57.35c13.27.56,16.77-7.51,16.77-16.77v-19C343.55,402.62,340.05,394.56,326.78,395.12Z" transform="translate(-250.45 -389.89)"/><path class="cls-2" d="M342.06,436.85c-1.1,3.81-3.45,6.66-5.12,6-.87-.35-.23-5,.49-7.8.5-2,1.76-6.49,3.49-6S343.16,433.05,342.06,436.85Z" transform="translate(-250.45 -389.89)"/><path class="cls-2" d="M342.06,405.93c-1.1-3.81-3.45-6.66-5.12-6-.87.35-.23,5,.49,7.8.5,2,1.76,6.49,3.49,6S343.16,409.73,342.06,405.93Z" transform="translate(-250.45 -389.89)"/><path class="cls-3" d="M308.91,421.43a103.16,103.16,0,0,1-.92,14.43c-.14,2.13.36,3.46,1.82,3.8l7.85,1c3.12.18,4.49-1.33,5-4.1a86.76,86.76,0,0,0,1.36-15v-.38a86.76,86.76,0,0,0-1.36-15c-.48-2.78-1.85-4.28-5-4.1l-7.85,1c-1.46.33-2,1.67-1.82,3.8a103.16,103.16,0,0,1,.92,14.43Z" transform="translate(-250.45 -389.89)"/><path class="cls-3" d="M253.91,421.67v-.38a86.76,86.76,0,0,1,1.36-15c.47-2.77,1.28-3.54,4.39-3.36l1.93.25c1.46.34,2,1.67,1.83,3.8a102.07,102.07,0,0,0-.93,14.43v-.1a102.07,102.07,0,0,0,.93,14.43c.13,2.13-.37,3.46-1.83,3.8l-1.93.25c-3.11.18-3.92-.59-4.39-3.36a86.76,86.76,0,0,1-1.36-15v.18Z" transform="translate(-250.45 -389.89)"/><polygon class="cls-3" points="39.05 51.72 55.9 52.09 50.22 50.67 39.05 50.6 39.05 51.72"/><polygon class="cls-3" points="35.3 50.58 21.7 50.5 19.78 51.29 34.5 51.62 35.3 50.58"/><polygon class="cls-3" points="39.05 11.29 55.9 10.91 50.22 12.33 39.05 12.4 39.05 11.29"/><polygon class="cls-3" points="35.3 12.42 21.7 12.5 19.78 11.71 34.5 11.38 35.3 12.42"/></svg>