<svg xmlns="http://www.w3.org/2000/svg" width="144.87mm" height="40.83mm" viewBox="0 0 410.65 115.73"><defs><style>.cls-1{fill:#fff;}</style></defs><g id="レイヤー_2" data-name="レイヤー 2"><g id="レイヤー_1-2" data-name="レイヤー 1"><path class="cls-1" d="M112.31,48.49l-1-.19a53.43,53.43,0,0,0-2.2-8l1-.87a4.22,4.22,0,0,0,.89-5.3l-5.63-9.74a4.21,4.21,0,0,0-3.66-2.11,4.11,4.11,0,0,0-1.37.23l-1.48.5a55.22,55.22,0,0,0-5.56-5.47l.61-1.77a4.22,4.22,0,0,0-1.89-5L82.27,5.14A4.22,4.22,0,0,0,77,6l-1.29,1.5A52.87,52.87,0,0,0,68.46,5.6L68,3.41A4.23,4.23,0,0,0,63.89,0H52.64a4.23,4.23,0,0,0-4.15,3.41L48.07,5.6a53,53,0,0,0-7,1.85L39.45,5.62a4.22,4.22,0,0,0-5.3-.88l-9.74,5.62a4.22,4.22,0,0,0-1.88,5l.73,2.15a55.3,55.3,0,0,0-5.21,5.06l-2.25-.77a4.16,4.16,0,0,0-1.38-.23,4.23,4.23,0,0,0-3.65,2.11L5.14,33.45A4.22,4.22,0,0,0,6,38.75l1.49,1.31A54.73,54.73,0,0,0,5.43,47.3l-2,.39A4.23,4.23,0,0,0,0,51.84V63.09a4.22,4.22,0,0,0,3.42,4.14l1.54.3a51.79,51.79,0,0,0,1.87,7.7l-1.21,1a4.23,4.23,0,0,0-.88,5.3l5.62,9.74A4.25,4.25,0,0,0,14,93.43a4.06,4.06,0,0,0,1.37-.23l1-.36a54.73,54.73,0,0,0,5.76,6l-.36,1.06a4.22,4.22,0,0,0,1.88,5l9.75,5.63a4.23,4.23,0,0,0,5.29-.89l.42-.48a53.55,53.55,0,0,0,8.39,2.42l.13.67a4.24,4.24,0,0,0,4.15,3.42H63.09a4.22,4.22,0,0,0,4.14-3.42l.07-.37A54,54,0,0,0,76,109.73l.33.37a4.24,4.24,0,0,0,5.3.89l9.74-5.63a4.22,4.22,0,0,0,1.88-5l-.13-.37a54,54,0,0,0,6.3-6.26l.56.2a4.38,4.38,0,0,0,1.37.23A4.22,4.22,0,0,0,105,92l5.63-9.74a4.22,4.22,0,0,0-.89-5.3l-.45-.39a53.18,53.18,0,0,0,2.2-8.38l.86-.16a4.23,4.23,0,0,0,3.42-4.15V52.64A4.23,4.23,0,0,0,112.31,48.49ZM57.86,96.43A38.57,38.57,0,1,1,96.43,57.86,38.56,38.56,0,0,1,57.86,96.43Z"/><path class="cls-1" d="M57.86,75.93c-5.16,0-9.52-4.66-9.52-7.6a2.26,2.26,0,0,1,4.51-.13,6.23,6.23,0,0,0,5,3.22,6.23,6.23,0,0,0,5-3.22,2.26,2.26,0,0,1,4.51.13c0,2.27-2.23,4.38-2.91,5A10.21,10.21,0,0,1,57.86,75.93Zm5-7.6Zm-10,0Z"/><path class="cls-1" d="M76.23,60.24c-6.8,0-5.75-10.36,0-10.36S83,60.24,76.23,60.24Z"/><path class="cls-1" d="M39.5,60.24c-6.79,0-5.75-10.36,0-10.36S46.3,60.24,39.5,60.24Z"/><path class="cls-1" d="M71.58,46.34a1.8,1.8,0,0,1-.22-3.59L77.14,42a1.81,1.81,0,0,1,.44,3.59l-5.77.72Z"/><path class="cls-1" d="M44.15,46.34h-.23l-5.78-.72A1.81,1.81,0,0,1,38.59,42l5.78.73a1.8,1.8,0,0,1-.22,3.59Z"/><path class="cls-1" d="M57.86,91.63A33.77,33.77,0,1,1,91.63,57.86,33.8,33.8,0,0,1,57.86,91.63Zm0-64.4A30.64,30.64,0,1,0,88.5,57.86,30.66,30.66,0,0,0,57.86,27.23Z"/><path class="cls-1" d="M142.47,87.36a1.67,1.67,0,0,1-1.69-1.69V30.05a1.67,1.67,0,0,1,1.69-1.68H159c21.82,0,21.91,18.72,21.91,18.72V68.63S180.86,87.36,159,87.36Zm10.39-47.94V76.31h5.9c3,0,10.11-.75,10.11-10V49.43c0-9.27-7.11-10-10.11-10Z"/><path class="cls-1" d="M209.56,77.36a17,17,0,0,1-2.7.14h-4.79v8.64a1.21,1.21,0,0,1-1.22,1.22h-6.28a1.21,1.21,0,0,1-1.22-1.22V46a1.2,1.2,0,0,1,1.22-1.21h12.29c15.88,0,16.08,13.51,16.08,13.51v5.6s-.14,7.09-6.15,11l5.4,11.21A1.21,1.21,0,0,1,221,87.36h-6a1.21,1.21,0,0,1-1.15-.81Zm-7.49-24.58V69.53h4.79c2.16,0,7.36-.68,7.36-7.36V60c0-6.68-5.2-7.22-7.36-7.22Z"/><path class="cls-1" d="M221,87.55h-6a1.41,1.41,0,0,1-1.33-.94l-4.19-9a18.29,18.29,0,0,1-2.59.12h-4.61v8.45a1.39,1.39,0,0,1-1.4,1.41h-6.28a1.39,1.39,0,0,1-1.4-1.41V46a1.38,1.38,0,0,1,1.4-1.4h12.29c15.88,0,16.26,13.56,16.26,13.69v5.61c0,.08-.2,7.13-6.09,11.08l5.35,11.1v0A1.39,1.39,0,0,1,221,87.55ZM209.67,77.16,214,86.47a1,1,0,0,0,1,.7h6a1,1,0,0,0,1-1l-5.46-11.33.14-.09c5.85-3.81,6.06-10.78,6.06-10.85v-5.6a14.76,14.76,0,0,0-2.07-6.68c-2.62-4.35-7.4-6.65-13.82-6.65H194.57a1,1,0,0,0-1,1V86.14a1,1,0,0,0,1,1h6.28a1,1,0,0,0,1-1V77.31h5a18.1,18.1,0,0,0,2.68-.13Zm-2.81-7.45h-5V52.59h5c2.82,0,7.55,1,7.55,7.41v2.17C214.41,69,209.13,69.71,206.86,69.71Zm-4.61-.37h4.61c2.16,0,7.18-.7,7.18-7.17V60c0-6.12-4.5-7-7.18-7h-4.61Z"/><path class="cls-1" d="M243.84,86.14a1.21,1.21,0,0,1-1.22,1.22h-6.28a1.21,1.21,0,0,1-1.22-1.22V46a1.2,1.2,0,0,1,1.22-1.21h6.28A1.2,1.2,0,0,1,243.84,46Z"/><path class="cls-1" d="M242.62,87.55h-6.28a1.39,1.39,0,0,1-1.4-1.41V46a1.38,1.38,0,0,1,1.4-1.4h6.28A1.38,1.38,0,0,1,244,46V86.14A1.39,1.39,0,0,1,242.62,87.55ZM236.34,45a1,1,0,0,0-1,1V86.14a1,1,0,0,0,1,1h6.28a1,1,0,0,0,1-1V46a1,1,0,0,0-1-1Z"/><path class="cls-1" d="M261.52,87.36a1.67,1.67,0,0,1-1.69-1.69V30.05a1.67,1.67,0,0,1,1.69-1.68h16.57c21.82,0,21.92,18.72,21.92,18.72V68.63s-.1,18.73-21.92,18.73Zm10.39-47.94V76.31h5.9c3,0,10.12-.75,10.12-10V49.43c0-9.27-7.12-10-10.12-10Z"/><path class="cls-1" d="M329.43,77.36a17.07,17.07,0,0,1-2.7.14h-4.8v8.64a1.21,1.21,0,0,1-1.21,1.22h-6.29a1.21,1.21,0,0,1-1.21-1.22V46a1.2,1.2,0,0,1,1.21-1.21h12.3c15.87,0,16.07,13.51,16.07,13.51v5.6s-.13,7.09-6.14,11l5.4,11.21a1.21,1.21,0,0,1-1.22,1.22h-6a1.22,1.22,0,0,1-1.15-.81Zm-7.5-24.58V69.53h4.8c2.16,0,7.36-.68,7.36-7.36V60c0-6.68-5.2-7.22-7.36-7.22Z"/><path class="cls-1" d="M340.84,87.55h-6a1.38,1.38,0,0,1-1.32-.94l-4.19-9a18.43,18.43,0,0,1-2.59.12h-4.61v8.45a1.39,1.39,0,0,1-1.4,1.41h-6.29a1.4,1.4,0,0,1-1.4-1.41V46a1.39,1.39,0,0,1,1.4-1.4h12.3C342.6,44.62,343,58.18,343,58.31v5.61c0,.08-.2,7.13-6.09,11.08l5.35,11.1v0A1.4,1.4,0,0,1,340.84,87.55Zm-11.3-10.39,4.31,9.31a1,1,0,0,0,1,.7h6a1,1,0,0,0,1-1l-5.45-11.33.13-.09c5.86-3.81,6.06-10.78,6.07-10.85v-5.6a14.91,14.91,0,0,0-2.07-6.68c-2.63-4.35-7.41-6.65-13.82-6.65h-12.3a1,1,0,0,0-1,1V86.14a1,1,0,0,0,1,1h6.29a1,1,0,0,0,1-1V77.31h5a17.89,17.89,0,0,0,2.67-.13Zm-2.81-7.45h-5V52.59h5c2.82,0,7.55,1,7.55,7.41v2.17C334.28,69,329,69.71,326.73,69.71Zm-4.61-.37h4.61c2.15,0,7.17-.7,7.17-7.17V60c0-6.12-4.49-7-7.17-7h-4.61Z"/><path class="cls-1" d="M363.7,86.14a1.21,1.21,0,0,1-1.21,1.22H356.2A1.21,1.21,0,0,1,355,86.14V46a1.2,1.2,0,0,1,1.21-1.21h6.29A1.2,1.2,0,0,1,363.7,46Z"/><path class="cls-1" d="M362.49,87.55H356.2a1.39,1.39,0,0,1-1.4-1.41V46a1.38,1.38,0,0,1,1.4-1.4h6.29a1.38,1.38,0,0,1,1.4,1.4V86.14A1.39,1.39,0,0,1,362.49,87.55ZM356.2,45a1,1,0,0,0-1,1V86.14a1,1,0,0,0,1,1h6.29a1,1,0,0,0,1-1V46a1,1,0,0,0-1-1Z"/><path class="cls-1" d="M385.88,62.1v24a1.21,1.21,0,0,1-1.22,1.22h-6.28a1.21,1.21,0,0,1-1.21-1.22V46a1.2,1.2,0,0,1,1.21-1.21h6.15A2.56,2.56,0,0,1,386.22,46l15.53,24.59V46A1.2,1.2,0,0,1,403,44.81h6.28A1.2,1.2,0,0,1,410.46,46V86.14a1.21,1.21,0,0,1-1.21,1.22H403.1a2.4,2.4,0,0,1-1.69-1.22Z"/><path class="cls-1" d="M409.25,87.55H403.1a2.56,2.56,0,0,1-1.85-1.31L386.07,62.73V86.14a1.4,1.4,0,0,1-1.41,1.41h-6.28a1.39,1.39,0,0,1-1.4-1.41V46a1.38,1.38,0,0,1,1.4-1.4h6.15a2.75,2.75,0,0,1,1.84,1.29l15.19,24V46a1.39,1.39,0,0,1,1.41-1.4h6.28a1.38,1.38,0,0,1,1.4,1.4V86.14A1.39,1.39,0,0,1,409.25,87.55ZM385.69,61.46,401.57,86a2.23,2.23,0,0,0,1.53,1.13h6.15a1,1,0,0,0,1-1V46a1,1,0,0,0-1-1H403a1,1,0,0,0-1,1V71.25L386.06,46.12A2.39,2.39,0,0,0,384.53,45h-6.15a1,1,0,0,0-1,1V86.14a1,1,0,0,0,1,1h6.28a1,1,0,0,0,1-1Z"/></g></g></svg>