<svg xmlns="http://www.w3.org/2000/svg" width="7.14mm" height="7.14mm" viewBox="0 0 20.25 20.25"><defs><style>.cls-1,.cls-3{fill:#304ea0;}.cls-1{stroke:#fff;stroke-miterlimit:10;stroke-width:0.25px;}.cls-2{fill:#fff;}</style></defs><g id="レイヤー_2" data-name="レイヤー 2"><g id="レイヤー_1-2" data-name="レイヤー 1"><path class="cls-1" d="M19.53,8.5l-.17,0A9.3,9.3,0,0,0,19,7.09l.18-.15A.73.73,0,0,0,19.3,6l-1-1.69A.74.74,0,0,0,17.46,4l-.26.09a8.61,8.61,0,0,0-1-.95l.11-.3A.73.73,0,0,0,16,2L14.34,1A.78.78,0,0,0,14,.91a.74.74,0,0,0-.55.26l-.23.25A9.21,9.21,0,0,0,12,1.09L11.88.72a.73.73,0,0,0-.72-.59H9.22A.71.71,0,0,0,8.5.72l-.08.37a9.78,9.78,0,0,0-1.21.32L6.93,1.1A.72.72,0,0,0,6,.94l-1.69,1A.71.71,0,0,0,4,2.78l.12.38A10.42,10.42,0,0,0,3.24,4L2.85,3.9a.59.59,0,0,0-.23,0A.76.76,0,0,0,2,4.22L1,5.91a.72.72,0,0,0,.16.91l.25.23A12.07,12.07,0,0,0,1.06,8.3l-.34.06a.73.73,0,0,0-.59.72V11a.72.72,0,0,0,.59.73L1,11.8a10.29,10.29,0,0,0,.32,1.33l-.2.18a.72.72,0,0,0-.15.91l1,1.69a.73.73,0,0,0,.87.32L3,16.17a9.74,9.74,0,0,0,1,1l-.06.19a.73.73,0,0,0,.33.87l1.68,1a.72.72,0,0,0,.91-.16L6.9,19a8.93,8.93,0,0,0,1.45.42l0,.11a.73.73,0,0,0,.71.59H11a.73.73,0,0,0,.72-.59v-.07a11.22,11.22,0,0,0,1.49-.38l0,.06a.73.73,0,0,0,.92.15l1.68-1a.73.73,0,0,0,.33-.87V17.4a9.35,9.35,0,0,0,1.09-1.09l.1,0a.73.73,0,0,0,.87-.33l1-1.68a.74.74,0,0,0-.16-.92L19,13.36a10.67,10.67,0,0,0,.38-1.45l.14,0a.73.73,0,0,0,.59-.72V9.22A.71.71,0,0,0,19.53,8.5Z"/><path class="cls-2" d="M10.12,16.79a6.67,6.67,0,1,1,6.67-6.67,6.67,6.67,0,0,1-6.67,6.67Z"/><path class="cls-3" d="M10.12,16A5.84,5.84,0,1,1,16,10.12h0A5.86,5.86,0,0,1,10.12,16Z"/><path class="cls-2" d="M10.12,4.83a5.3,5.3,0,1,0,5.3,5.29A5.29,5.29,0,0,0,10.12,4.83Z"/><path class="cls-3" d="M10.12,13.24a1.71,1.71,0,0,1-1.64-1.31.39.39,0,0,1,.37-.4.39.39,0,0,1,.41.38,1,1,0,0,0,.86.55,1.06,1.06,0,0,0,.87-.55.38.38,0,0,1,.4-.38.4.4,0,0,1,.38.4h0a1.35,1.35,0,0,1-.51.86A1.77,1.77,0,0,1,10.12,13.24Z"/><path class="cls-3" d="M13.29,10.53c-1.17,0-1-1.79,0-1.79S14.47,10.53,13.29,10.53Z"/><path class="cls-3" d="M7,10.53c-1.17,0-1-1.79,0-1.79S8.12,10.53,7,10.53Z"/><path class="cls-3" d="M12.49,8.13a.31.31,0,0,1,0-.62l1-.12a.31.31,0,1,1,.2.59.25.25,0,0,1-.12,0l-1,.13Z"/><path class="cls-3" d="M7.75,8.13h0L6.72,8a.32.32,0,1,1,0-.63l.11,0,1,.12a.32.32,0,0,1,.26.36.3.3,0,0,1-.3.26Z"/></g></g></svg>